<svg xmlns="http://www.w3.org/2000/svg" viewBox="0 0 64 64" role="img" aria-label="Notify4 favicon concept with rain cloud and notification dot">
  <defs>
    <linearGradient id="bg-rain" x1="0" x2="1" y1="0" y2="1">
      <stop offset="0%" stop-color="#14263a" />
      <stop offset="100%" stop-color="#09121e" />
    </linearGradient>
  </defs>
  <rect width="64" height="64" rx="14" fill="url(#bg-rain)" />
  <circle cx="48" cy="16" r="6" fill="#65c466" />
  <path d="M21 37 C19 29, 24 22, 32 22 C37 15, 48 18, 49 27 C54 28, 57 32, 57 37 C57 42, 53 46, 47 46 H24 C18 46, 14 42, 14 37 C14 33, 17 29, 21 29" fill="#f8fafc" />
  <path d="M22 49 L18 58 M32 48 L28 59 M42 49 L38 58" fill="none" stroke="#38bdf8" stroke-linecap="round" stroke-width="4" />
</svg>
